<svg width="5" height="4" viewBox="0 0 5 4" fill="none" xmlns="http://www.w3.org/2000/svg">
<path d="M2.72727 3.98438C2.37784 3.98438 2.05966 3.89915 1.77273 3.72869C1.4858 3.55824 1.2571 3.32955 1.08665 3.04261C0.916193 2.75284 0.830966 2.43324 0.830966 2.08381C0.830966 1.73437 0.916193 1.41619 1.08665 1.12926C1.2571 0.842329 1.4858 0.613636 1.77273 0.443182C2.05966 0.272727 2.37784 0.1875 2.72727 0.1875C3.0767 0.1875 3.39489 0.272727 3.68182 0.443182C3.96875 0.613636 4.19744 0.842329 4.3679 1.12926C4.53835 1.41619 4.62358 1.73437 4.62358 2.08381C4.62358 2.43324 4.53835 2.75284 4.3679 3.04261C4.19744 3.32955 3.96875 3.55824 3.68182 3.72869C3.39489 3.89915 3.0767 3.98438 2.72727 3.98438ZM2.72727 3.32386C2.95739 3.32386 3.16477 3.26847 3.34943 3.15767C3.53693 3.04687 3.68608 2.89773 3.79688 2.71023C3.91051 2.52273 3.96733 2.31392 3.96733 2.08381C3.96733 1.85653 3.91051 1.64915 3.79688 1.46165C3.68608 1.27415 3.53693 1.125 3.34943 1.0142C3.16477 0.903409 2.95739 0.848011 2.72727 0.848011C2.5 0.848011 2.29261 0.903409 2.10511 1.0142C1.91761 1.125 1.76705 1.27415 1.65341 1.46165C1.54261 1.64915 1.48722 1.85653 1.48722 2.08381C1.48722 2.31392 1.54261 2.52273 1.65341 2.71023C1.76705 2.89773 1.91761 3.04687 2.10511 3.15767C2.29261 3.26847 2.5 3.32386 2.72727 3.32386Z" fill="#303345"/>
</svg>
